#!OML:ASF E:\Steps\Project 1\Capture day 1\Session 2\Subject.ASF
:FULLY-SPECIFIED
:DEGREES
297
root -0.913678 17.8134 20.1937 -157.154 0.989149 185.812
lowerback -21.3611 -3.8435 -8.8585
upperback 0.766384 -2.64754 0.0611352
thorax 13.3863 -1.75165 4.2797
lowerneck -3.07043 -9.32641 -0.263132
upperneck 16.1804 -12.9465 6.1809
head 5.83316 -5.62592 1.20422
rclavicle -1.27222e-014 -1.59028e-015
rhumerus -40.8018 -11.1988 -81.0474
rradius 38.6353
rwrist -6.69702
rhand -6.82513 -53.5593
rfingers 7.12502
rthumb 19.039 -82.6475
lclavicle -1.27222e-014 -1.59028e-015
lhumerus -32.4378 0.788743 71.4428
lradius 31.3113
lwrist -0.298127
lhand -21.2428 -11.7063
lfingers 7.12502
lthumb 5.13996 18.2113
rfemur -51.9335 -4.55072 18.3228
rtibia 46.9936
rfoot -26.0618 -15.9907
rtoes -28.9429
lfemur -28.0782 -10.9739 -12.5036
ltibia 28.4925
lfoot -20.5582 1.70195
ltoes -25.1609
298
root -0.884603 17.8018 20.1609 -157.281 0.791572 186.076
lowerback -21.4686 -3.84416 -8.81065
upperback 0.855533 -2.65059 0.0606987
thorax 13.5506 -1.76021 4.24508
lowerneck -3.40231 -9.45959 -0.224412
upperneck 16.5211 -13.1614 6.19349
head 6.00387 -5.70075 1.16391
rclavicle 1.63003e-014 8.90555e-014
rhumerus -40.796 -11.4511 -80.9793
rradius 38.4968
rwrist -6.74271
rhand -6.39691 -54.5809
rfingers 7.12502
rthumb 19.4508 -83.6281
lclavicle 1.63003e-014 8.90555e-014
lhumerus -32.2566 0.502888 71.3862
lradius 31.4439
lwrist -0.269352
lhand -21.6044 -11.8253
lfingers 7.12502
lthumb 4.79073 18.1006
rfemur -52.1289 -4.74869 17.6995
rtibia 46.3214
rfoot -25.6438 -16.0465
rtoes -28.4423
lfemur -27.9195 -11.1113 -12.1054
ltibia 28.6958
lfoot -20.8746 1.63374
ltoes -24.0994
299
root -0.854693 17.7937 20.1344 -157.415 0.599588 186.39
lowerback -21.4731 -3.81252 -8.75634
upperback 0.909563 -2.63296 0.107329
thorax 13.6133 -1.75744 4.2717
lowerneck -3.51597 -9.57668 -0.440781
upperneck 16.6543 -13.3516 6.44074
head 6.10442 -5.77662 1.24934
rclavicle -4.29375e-014 1.43125e-014
rhumerus -40.8519 -11.6966 -80.8184
rradius 38.3842
rwrist -6.77624
rhand -6.52898 -54.5397
rfingers 7.12502
rthumb 19.3238 -83.5996
lclavicle -4.29375e-014 1.43125e-014
lhumerus -32.3067 0.0773527 71.4183
lradius 31.8252
lwrist -0.158474
lhand -21.3456 -11.4761
lfingers 7.12502
lthumb 5.04064 18.444
rfemur -52.2598 -4.8485 17.0087
rtibia 45.3474
rfoot -24.7844 -16.1515
rtoes -27.7679
lfemur -27.8753 -11.1629 -11.6396
ltibia 29.0854
lfoot -21.1721 1.74093
ltoes -24.845
300
root -0.821347 17.7903 20.1126 -157.646 0.411078 186.709
lowerback -20.895 -3.78674 -8.85123
upperback 0.722797 -2.65693 0.217011
thorax 13.0762 -1.75625 4.46433
lowerneck -3.34506 -9.66234 -0.60024
upperneck 16.8514 -13.4535 6.51005
head 6.15712 -5.81699 1.29283
rclavicle -2.98177e-014 2.06736e-014
rhumerus -41.3427 -11.6967 -80.5499
rradius 38.4051
rwrist -6.51642
rhand -7.61373 -51.9585
rfingers 7.12502
rthumb 18.2805 -81.1196
lclavicle -2.98177e-014 2.06736e-014
lhumerus -32.8024 -0.348428 71.483
lradius 32.299
lwrist -0.0224023
lhand -21.4277 -11.1668
lfingers 7.12502
lthumb 4.96137 18.7551
rfemur -52.2444 -4.80174 16.2006
rtibia 44.2636
rfoot -23.6173 -16.3906
rtoes -25.4408
lfemur -27.792 -11.1521 -11.1595
ltibia 29.5696
lfoot -21.3728 1.83148
ltoes -25.2148
301
root -0.785946 17.787 20.0896 -157.849 0.118917 186.95
lowerback -20.4857 -3.8274 -8.99851
upperback 0.640216 -2.73119 0.285242
thorax 12.7689 -1.79085 4.61488
lowerneck -3.30714 -9.64531 -0.613393
upperneck 17.0753 -13.4272 6.53268
head 6.22307 -5.78537 1.30247
rclavicle -3.18055e-015 9.38264e-014
rhumerus -41.5891 -11.7644 -80.3796
rradius 38.2916
rwrist -6.15174
rhand -8.01968 -50.8477
rfingers 7.12502
rthumb 17.8899 -80.0449
lclavicle -3.18055e-015 9.38264e-014
lhumerus -32.8795 -0.645177 71.4674
lradius 32.4466
lwrist -0.0688201
lhand -21.6441 -11.2413
lfingers 7.12502
lthumb 4.75243 18.6854
rfemur -52.2489 -4.82193 15.3401
rtibia 43.3275
rfoot -22.1441 -16.5328
rtoes -22.9419
lfemur -27.7417 -11.2016 -10.7198
ltibia 30.0188
lfoot -21.5542 1.58873
ltoes -23.6322
302
root -0.75189 17.7788 20.0606 -157.947 -0.27108 187.121
lowerback -20.4785 -3.90406 -9.10276
upperback 0.689087 -2.80871 0.291914
thorax 12.8408 -1.83873 4.65511
lowerneck -3.20829 -9.82617 -0.572435
upperneck 16.988 -13.7014 6.74666
head 6.20275 -5.90355 1.34817
rclavicle -1.43125e-014 -3.49861e-014
rhumerus -41.5399 -12.0023 -80.2828
rradius 37.9599
rwrist -6.2204
rhand -7.49244 -51.9
rfingers 7.12502
rthumb 18.3972 -81.0501
lclavicle -1.43125e-014 -3.49861e-014
lhumerus -32.6479 -0.943093 71.391
lradius 32.5667
lwrist 0.0268911
lhand -21.5141 -11.3317
lfingers 7.12502
lthumb 4.87799 18.5922
rfemur -52.2879 -5.07815 14.506
rtibia 42.2954
rfoot -20.1624 -16.6426
rtoes -21.9983
lfemur -27.7818 -11.3839 -10.3326
ltibia 30.4541
lfoot -21.8214 1.40681
ltoes -23.3926
